# xmcd
#
# Track frame offsets:
#	150
#	15781
#	32468
#	53318
#	72294
#	88701
#	110984
#	125057
#	142956
#	158876
#	174507
#	191194
#	212044
#	231020
#	247427
#	269710
#	283783
#	301682
#
# Disc length: 4234 seconds
#
# Revision: 1
# Processed by: cddbd v1.5.2PL0 Copyright (c) Steve Scherf et al.
# Submitted via: audiograbber 1.83.01
#
DISCID=04108812
DTITLE=Various Artist - Country 1006-C
DYEAR=2010
DGENRE=Country
TTITLE0=Bucky Covington - A Father's Love
TTITLE1=Jerrod Niemann - Lover, Lover
TTITLE2=Jake Owen - Tell Me
TTITLE3=The Harters - Jenny
TTITLE4=Gloriana - The World is Ours Tonight
TTITLE5=Steve Azar - Sunshine
TTITLE6=Randy Houser - I'm All About It
TTITLE7=Gwen Sebastian - V.I.P. (Barefoot Girl)
TTITLE8=Tammy Cochran - He Really Thinks He's Got It
TTITLE9=Bucky Covington - A Father's Love-vcl
TTITLE10=Jerrod Niemann - Lover, Lover-vcl
TTITLE11=Jake Owen - Tell Me-vcl
TTITLE12=The Harters - Jenny-vcl
TTITLE13=Gloriana - The World Is Ours Tonight-vcl
TTITLE14=Steve Azar - Sunshine-vcl
TTITLE15=Randy Houser - I'm All About It-vcl
TTITLE16=Gwen Sebastian - V.I.P. (Barefoot Girl)-vcl
TTITLE17=Tammy Cochran - He Really Thinks He's Got It-vcl
EXTD=
EXTT0=
EXTT1=
EXTT2=
EXTT3=
EXTT4=
EXTT5=
EXTT6=
EXTT7=
EXTT8=
EXTT9=
EXTT10=
EXTT11=
EXTT12=
EXTT13=
EXTT14=
EXTT15=
EXTT16=
EXTT17=
PLAYORDER=
